<?xml version="1.0" encoding="utf-8"?>
<!-- Generator: Adobe Illustrator 18.1.1, SVG Export Plug-In . SVG Version: 6.00 Build 0)  -->
<!DOCTYPE svg PUBLIC "-//W3C//DTD SVG 1.1//EN" "http://www.w3.org/Graphics/SVG/1.1/DTD/svg11.dtd">
<svg version="1.1" id="Calque_1" xmlns="http://www.w3.org/2000/svg" xmlns:xlink="http://www.w3.org/1999/xlink" x="0px" y="0px"
	 viewBox="0 0 665.3 215.1" enable-background="new 0 0 665.3 215.1" xml:space="preserve">
<g>
	<path fill="#FFFFFF" d="M237.8,140.9c-2.2-2.6-4.4-0.9-6.6-2.6c-3.1-0.9-6.6-1.7-9.2-2.2c-2.6-0.4-5.7-1.3-7.9-1.8
		c-3.5,1.3-5.2-2.2-8.3-1.3c-2.6-2.2-5.7,0-8.8-1.7c-1.3-1.8-3.9,0.4-5.2-1.8c-4.4-0.9-7.9-3.5-12.7-3.9c-1.3-0.4-2.2-2.2-4.4-1.7
		c-3.1-2.6-6.6-1.3-10.1-2.6c-4.4-1.7-3.1-7.4-3.5-11.8c-1.3-4.4-0.4-9.2-1.3-14c0.4-0.4,0.9-1.3,0.4-2.2c1.3-4.4-1.3-9.6,0.4-14
		c1.7-2.2,4.8-2.2,7.4-1.7c3.1-1.7,7-0.9,10.1-1.3c7.4-2.2,14.9-0.9,22.3-3.1c3.1-0.9,7.9,0.4,9.6-3.1c-1.3-1.3-0.4-3.5-2.6-3.9
		c-0.4,0,0-0.4,0.4-0.9c-0.9-0.4-1.3-1.3-2.2-1.3c-2.2-2.6-4.4-2.6-7.4-3.1c-2.6,1.8-5.3,1.3-7.9,3.1c-1.7,0-4.4,0.9-5.7,2.6
		c-2.2,1.8-4.8-0.9-7,0.9c-5.2-0.9-9.6-1.3-14.4-3.1c-4.8-4.4-0.4-11.4-0.9-17.1c0-8.8,2.6-16.2,6.6-23.6c0.4-4.4-4.4-1.8-5.7-4.8
		c-2.2-0.9-3.9-2.2-6.6-3.5l-1.3-1.3c-1.3-2.2-3.1,0.4-4.4,0.9l3.9,4.4c3.5,3.9,0.4,9.6,0.9,14c0.4,3.9-1.7,9.2,0,13.6
		c-1.3,2.6,0.4,7-1.7,9.2c-4.8-0.4-7-5.7-10.5-7.4c-0.4,0.9-0.4,1.8,0.4,2.2c0.9,4.4,2.6,8.8,6.1,11.4c1.3,2.6-2.2,4.4-2.6,6.6
		c1.3-0.4,3.5,0.4,4.4-0.9c1.3,0,1.7,1.3,2.6,2.2c0,1.8-0.9,3.1-2.2,4.4c-6.6,1.7-12.7,6.1-17.1,11.4c-5.3-1.3-8.8,3.5-14,4.8
		c-6.6,6.1-14,9.6-20.6,15.8c-3.1,1.8-7,3.5-8.8,7c-2.2,0.9-3.9,4.8-7,3.5c-3.9-7.9,3.9-11.8,7-17.5c7-7,13.1-16.6,22.3-21.9
		c1.3-0.9,2.6-2.6,2.6-3.9c-0.4-4.8-5.3-4.4-7.9-7c-4.4,0-7.4-1.7-11.4-2.2c-3.1,3.1-6.1,5.3-9.6,7.4c-1.3-0.9-0.4-2.2-0.9-3.9
		c1.3-6.6,2.2-14,4.8-21c0.9-1.7,0.4-4.8,2.2-7c0.4-0.9,1.8-2.2,0.4-3.5c0-0.4,0.4-0.9,1.3-0.4c0-3.1,3.1-5.2,1.8-8.8
		c-3.1-2.2-5.3-5.7-9.2-6.1l-0.4,0.9c2.2,5.2-0.4,10.5-2.2,14.9l0.4,0.9c-1.7,0.9-0.4,2.6-1.7,3.9c0.9,3.5-2.6,5.7-1.8,9.2
		c-1.8,6.1-1.8,13.1-3.9,19.7c-1.3,1.3-0.4,3.5-0.4,4.8c-1.3,1.3-2.6,3.1-4.4,2.2c-1.8,0.9-4.8,1.7-7.4,1.3
		c-4.4,2.2-9.2,2.6-13.6,3.1c-4.4,0.9-7.9,3.1-11.8,3.5c-3.5,2.2-7.4,3.9-10.9,5.7c-3.5,3.5-7,7-9.2,11.8
		c-2.6,8.3,4.8,13.6,9.6,17.5c0.4,0,1.3,0.4,1.3-0.4c-1.7-2.2-2.2-5.3-2.6-8.3c1.3-7,9.2-4.8,14.4-6.1c3.1,0,7,0,10.1-1.3
		c7.9-1.3,14-7.4,21.4-8.8c3.5,3.5-1.3,7.4-1.7,11.4c-3.5,4.4-5.3,9.6-8.8,14c-0.4,4.4-4.8,5.3-6.1,8.8c-3.1,4.4-7,8.8-10.5,12.7
		c-0.9,3.5-5.2,5.2-7.9,7.9c-10.1,1.7-3.1,12.7-4.8,18.8c0.9,1.3,1.3,3.5,3.1,3.5c2.2-0.9,2.6-3.1,3.1-4.4c1.8-0.9,4.4-1.7,5.3-3.9
		c4.8-3.1,7-7.9,10.5-11.4c6.1,2.6,7.9,9.2,13.6,12.7c3.1,6.6,3.5,14.4,6.6,21c0,5.3,5.7,7,8.8,8.3c2.2,0,3.1-2.2,4.8-2.6
		c3.5-5.2,0.4-11.4-0.9-16.6c-2.6-9.2-1.7-18.4-4.8-28c2.2-7.4-3.5-16.2,0.9-24.1c4.8-4.4,10.5-6.1,13.6-10.9
		c3.9-1.3,6.6-4.8,10.5-7c5.3-5.7,13.1-7,18.8-12.3c2.2,0,3.5-2.6,5.7-2.6c3.9-3.5,9.6-3.1,14-6.1c1.8-1.3,2.6,0.9,4.4,0.9
		c2.2,2.2,0,4.8,0.4,7.4c-3.1,5.7-6.6,11.8-11.8,16.2c-1.8,2.2-4.8,2.2-7.9,1.8c-1.7-4.4-6.6,0.9-9.6-1.3c-4.4,0.9-9.2,2.2-12.7,3.9
		c1.8,0.4,2.6,0,4.4-0.4c2.2-0.9,4.4-1.3,6.6-1.7c2.6-2.6,3.9,1.3,6.6,0.9c0,1.3,1.3,2.2,0.9,3.5c2.2,4.4-1.7,8.3,0.9,12.7
		c-0.9,1.3-2.6,2.6-3.5,3.5c-5.2,3.1-8.8,7.9-12.7,12.3c-3.1,2.2-5.3,6.1-9.2,6.6c-4.4-0.4-3.1-5.7-6.1-7.4c-1.3,0.9,0.4,0.9,0,1.7
		c0,3.9,2.2,7,1.3,11.8c-0.9,1.3-2.6,2.6-2.2,4.8c0,0,0,0.9,0.9,0.4c1.7,2.2,3.5,0.4,5.7,1.7c0.9-0.4,1.3-2.6,3.1-1.3
		c4.4-3.5,9.2-7,12.7-11.4c3.5-2.6,5.7-7,9.6-9.6c1.7,2.2,2.2,5.3,2.2,7.9c2.6,4.4,2.2,10.5,5.2,14.9c3.1,9.2,7,17.9,11.8,26.3
		c1.7,3.9,6.1,1.7,9.2,3.5c1.7-1.8,4.4-4.4,4.8-7c3.9-4.8,3.1-10.5,3.1-16.6c0.4-1.3,0.9-2.2,0-3.5c0.9-3.5-0.9-7.9-0.9-11.4
		c-1.3-1.3,0-3.5-1.3-4.8c0-6.1-0.4-11.4-1.3-17.1c0.9-0.9-0.4-2.2,0.9-3.1c4.8,2.2,9.6,5.3,14.4,7.4c3.1,0.9,5.7,3.5,9.2,3.1
		c4.4,3.5,9.6,3.9,14.4,5.7c2.2,0,3.9,1.3,6.1,1.3c4.4,0.9,8.8,2.6,13.6,1.8c6.1-0.9,13.6,2.6,17.9-3.5
		C240.9,143.5,238.7,142.2,237.8,140.9L237.8,140.9z M77.7,158.8c-5.3,0.9-9.2-4.4-13.6-6.1c-1.3-1.8-2.6-1.8-3.5-3.1
		c0.4-6.1,7.9-7.9,10.9-12.7c1.7,0,3.5-1.3,4.8,0c0.9,1.3,0,2.2,0.4,3.5C78.1,146.6,78.1,153.2,77.7,158.8L77.7,158.8z M101.3,148.8
		v-0.4l0.3,0.3c0.1,0,0.2,0,0.2,0.2l-0.2-0.2C101.4,148.6,101.3,148.8,101.3,148.8L101.3,148.8z M132.4,122.5
		c-0.4,0-0.4-0.4-0.9-0.9c0.4-2.2-0.4-6.1,0.9-8.3c1.7,0,3.1,0.9,3.9,1.7C137.2,118.1,133.2,120.3,132.4,122.5L132.4,122.5z
		 M156,166.3c-1.7,0-3.9-0.4-5.2-1.8c-1.8-2.6-5.7-3.9-7-7.4c-2.6-2.6-3.1-5.7-5.3-8.3c-0.4-5.7-7.9-12.3-1.3-17.1
		c0.4-1.7,3.1-3.1,3.5-5.2c2.6-2.2,4.4-7,8.3-5.3c2.2,0.4,4.8,1.7,6.1,3.9c0.4,4.4-0.9,10.1-0.4,13.6c0.4,4.8,0.9,9.6,0.9,14.4
		C156,157.5,157.7,162.3,156,166.3L156,166.3z"/>
	<path fill="#FFFFFF" d="M98.7,128.2c-0.9,1.3-1.3,3.5-0.4,5.3C98.2,132.1,100,129.5,98.7,128.2L98.7,128.2z"/>
</g>
<g>
	<path fill="#FFFFFF" d="M370.6,57.6c4.6-2.1,9.2-2.5,14.6-2.9c2.1-2.1,5.4,0.4,7.9-0.8c2.5,1.7,4.6,0,7.5,0.4
		c0.8-0.4,2.9-1.3,3.8,0c2.9,0,4.6-2.1,7.1-3.8c1.3-2.5,2.9-5.8,0.8-8.4c-2.5-0.8-4.6-1.7-7.1-1.7c-1.3,0-2.1,0.8-2.9,0.4
		c-4.2,0.4-5.9,1.7-10,2.1c-1.7,0.8-5.8-1.7-5.8,1.3c-2.9,2.9-7.5,2.5-10.4,5c-1.7,0-3.8,1.3-4.6-0.8c0.4-2.5,1.7-5,2.1-7.5
		c2.9-4.2,3.8-8.8,7.9-12.1c2.9-2.9,1.7-6.7,0.8-10c-1.3-1.7-2.9-3.8-5-4.6c-2.5-1.7-5,0.4-7.1,1.7c1.3,0,2.5,0.8,2.9,2.1
		c0.8,3.3-1.3,5.8-2.9,8.8c0.4,2.9-1.7,4.6-2.1,7.1c-2.5,5.8-5,12.5-7.1,18c-3.8,1.7-7.1,4.2-11.3,3.8c-4.6,1.3-8.4,4.2-13,3.8
		c-2.5,1.3-6.3,0.4-7.5,3.8c-2.5-1.3-1.7,2.5-4.2,1.3c-0.8,1.7-3.3,0.8-4.2,2.5c-3.3,0-5.4,2.9-8.4,3.8c-1.3,0.8-2.9-0.8-2.9,1.3
		c-3.8,3.3-8.8,4.2-12.5,7.9c-2.1-0.4-2.9,2.1-5.4,1.3c-0.8,0.4-0.8,1.3-1.7,0.8c-1.3,1.7-3.8,2.9-5.8,3.8c-2.1,0-1.3-2.1-1.7-3.3
		c3.8-7.1,4.6-15.5,7.5-23c0-3.3-0.8-6.3-2.1-9.2c0-0.4-1.7-1.7-1.3-2.5c1.7-1.3,3.3,0,5,0c1.7,1.7,3.8,1.3,5.8,2.1
		c3.3,2.9,8.4,2.5,12.5,1.7c2.9-4.2,4.6-9.2,5-14.2c0.4-2.1-1.3-2.1-2.5-2.1c-1.7,0-2.9,0.8-3.8,2.5c-5-1.7-7.9,2.1-11.7,4.2
		c-4.2-0.4-7.1,4.2-10.9,5.4c-1.3,0-2.5-0.8-2.9-2.1c-5-2.5-7.5-7.1-11.7-10.4c0,0.4,0.4,1.3,0.8,1.7c-2.1,5.8,1.3,11.7,4.2,17.1
		c3.8,5.8-0.8,11.3-0.4,17.5c-1.3,2.9-1.7,6.3-2.9,9.6c-1.7,1.3,0,3.8-1.3,5c-3.3,5-3.8,12.1-0.4,17.1c2.9,2.5,5,6.3,8.8,7.1
		c0.8-0.8,1.3,1.3,2.1,0c3.3,0,3.8-4.6,5.4-6.7c-1.3-4.6,4.2-5.8,5-10c5.8-2.1,10-6.3,15-10c2.1,0.4,2.9-2.1,5-2.1
		c3.8-2.1,7.1-3.8,11.3-5.4c5.8-5.4,15-5.4,20.9-10c3.8-0.4,7.1-1.7,10.4-3.3c3.3,0,2.1,3.3,3.3,5.4c-1.3,2.5,1.3,4.6,0,7.1
		c2.5,1.7,0.8,5.4,3.3,6.7c-0.8,3.3,4.2,2.5,2.9,5.9c-3.3,2.9-7.5,3.8-10.4,6.3c-1.7-2.1-4.2,1.7-6.7,0.8c-4.2,2.5-9.2,4.6-13.8,7.1
		c-0.8,2.1-3.8,0.8-5,2.9c-4.2,5-8.8,7.5-12.1,13.4c0.8,2.5-2.9,3.8-1.3,6.3c-3.3,8.8-5.8,18.8-3.8,28c-0.8,2.5-3.8,3.8-5,5.4
		l-1.3,5c0.8,2.1,2.5,3.8,2.9,6.3c1.3,2.1,0.8,5,0.8,7.5c0.4,2.5,2.1,4.6,3.8,6.7c1.3,0.4,2.9,0.4,4.2-0.8c2.9-2.9,5,2.1,7.9,0.8
		c1.7,2.1,4.6,0,7.1,1.3c2.5-1.7,5.4,0,7.9-0.8c2.5-0.8,5,0.8,7.5-0.4c2.9,0.8,6.3-0.8,9.6,0.4c2.1,1.3,3.8,4.2,3.8,7.1
		c3.8,3.3,1.3,9.2,5.4,12.1c1.3,1.3,2.5-0.4,4.2-0.4c4.6-5.4,6.3-12.1,7.5-19.2c-0.8-3.3,1.7-6.7,0.4-10c0.8-8.4,1.3-16.7,2.1-25.1
		c0.8-1.7,1.3-2.9,0.8-5c0.8-3.3,1.3-6.3,1.3-9.6c2.1-2.9,0.4-6.7,1.7-10c-1.7-3.8-2.9-8.8-6.7-11.3c-1.7-2.1-4.2-2.5-6.3-3.3
		c-6.7,0.4-11.7,3.3-18,5.4c-0.8,0.8-1.3,2.5-2.5,2.1c-2.5,0.8-4.6,3.3-7.1,3.3c-1.7,2.9-5.4,2.9-7.1,5.8c-5,1.7-9.2,6.3-13.4,9.6
		c-0.8,0-2.1,0.8-2.5-0.4c0-0.8,0.4-2.1,1.3-2.5c0.8-2.5,1.3-5.4,2.1-7.9c1.7-2.5,3.3-5.8,5.4-8.4c1.3-4.2,5.8-5.4,7.5-9.2
		c5-5,10.9-7.9,17.5-9.6c2.1-0.4,4.2-2.9,6.3-2.5c2.1-2.1,5.8-1.7,8.8-2.1c5,0,10-1.7,15-0.8c2.1-2.5,4.2,0.4,6.3-0.4
		c1.7,2.5,2.9-1.7,4.6,0.4c2.1-2.5,5.4-1.3,7.9-2.5c1.7-2.5,3.8-5.4,2.5-8.8c-2.9-4.6-10-2.5-15.5-2.1c-2.5,1.7-5.8,0.4-8.8,2.1
		c0,0-0.4-0.4-0.4-0.8c-2.1-0.4-5.4,0-7.5-0.8c-0.8-0.4-0.8-2.1-2.1-1.3c-3.8-2.1-4.2-7.5-4.2-11.3
		C369.7,63.1,366.8,59.3,370.6,57.6L370.6,57.6z M324.2,139.5c6.7-6.3,14.6-11.7,23-16.7c1.3,0.4,2.9-1.7,4.6-1.7
		c2.5-2.9,7.1-1.3,9.6-3.8c3.8,0.4,7.5,0,10,2.9c0.8,4.2,0,8.4-0.8,13c0.4,5-0.8,7.5-0.4,12.1c-0.4,3.8-1.3,7.9-1.3,11.7
		c-0.8,2.9-0.4,6.7-2.1,9.6c0.8,1.7,0,2.9,0,3.8c0,1.7,0,3.8-0.4,5.9c-3.3,0.4-5.8-3.8-9.2-1.7c-3.8-0.4-6.3,0.8-10.4,0.4
		c-2.1,0.8-5.4,0.8-7.5,0.8c-2.5,2.1-4.6,0.4-7.5,2.1c-0.8-1.3-2.5-0.8-3.8-0.4c-2.1,0.4-4.2,1.3-6.3,2.1c-0.8,0-1.3-0.8-1.7-1.3
		c0.4-7.5-0.8-14.6,0.4-21.7c2.1-2.5,4.2,0.8,5.8,0.8c3.8,0.8,7.1,1.3,10.9,1.7c0.4-0.8,2.5-0.8,3.3-0.8l2.5,0.4
		c3.8-2.5,10.9-0.4,10.9-7.1c1.7,0,1.3-2.5,2.5-3.3c-0.4-0.4-1.7-2.1-2.5-0.8c-2.1-0.4-5-0.4-7.1,0c-1.7,1.7-4.6,0.4-6.3,2.1
		c-2.9,0.4-7.1,0.8-10,0.4c-2.5,0.8-5.4,0.8-8.4,0C320,146.6,322.1,142.4,324.2,139.5L324.2,139.5z"/>
</g>
<g>
	<path fill="#FFFFFF" d="M644.5,131.4c-4.7-2.8-4.3-9-9.5-10.9c-3.8-0.9-8,0-11.4,1.4c-1.9-1.9-4.7-0.5-7.1-0.9
		c-1.4,1.9-4.3-0.5-6.2,1.4c-2.8,0-6.6,0.5-9.5,0.9c-3.3,0-3.8-3.8-2.8-6.2c0-5.2-1.9-11.4-6.1-14.2c-3.3-0.5-7.6-3.8-10.9-0.5
		c3.8,0.5,5.2,4.3,6.6,7.1c1.9,5.2-1.4,10.4-2.4,15.1c-1.4,1.9-3.8,2.4-6.2,2.4c-6.6,0.9-11.8,2.4-18,3.8c-0.5,2.4-2.4,1.4-3.8,0.9
		c-3.3,2.4-8,2.8-11.4,3.8c-0.9,2.4-3.3-0.5-5.2,1.4c-0.9,0-0.9-1.4-0.9-2.4c2.8-3.8,5.2-7.6,8-11.8c1.9-1.9,0.9-4.7,3.8-6.2
		c2.4-8,7.1-15.6,10.9-23.7c0-1.4-0.5-3.8,1.4-4.3c1.4-6.2,8.5-4.7,14.2-5.2c0.9,0,2.4,0.9,2.8-0.9c9.9-1.4,18.9-4.7,25.6-13.3
		c1.4,0,3.3,0.5,3.8-1.4c9-11.8,25.1-21.8,23.2-39.3c-1.4-1.9-2.8-4.7-4.3-5.2c-3.3-3.8-7.6-1.4-11.4-4.3c-1.4,0.9-3.8-0.5-4.3,1.4
		c2.8,2.4,7.6,2.4,9.9,5.7c1.9,4.3-0.9,8.5-2.4,12.3c-5.2,7.1-9.5,15.1-16.1,20.8c-3.3,1.4-4.3,5.7-7.1,6.6c-4.7,1.9-8.5,6.2-13.2,8
		c-4.7,0.5-9.5,4.3-14.2,1.9c1.4-10.9,7.6-19.4,9-29.8c0.9-2.8,2.4-6.2,1.4-9.5c0.5-6.6-4.3-11.4-9-14.7c-3.8-1.4-6.2,2.4-9,3.8
		l0.5,0.5c1.4-1.9,2.8-1.4,4.7-1.9c2.4-1.4,2.8,1.4,4.3,2.4c0.9,4.3-0.5,7.6-3.3,10.9c-10.9,6.6-22.7,10.9-32.7,19.9
		c-9.9,5.2-18.9,12.3-29.3,17.5c-0.9,0.5-4.3,2.4-4.7-0.5c0.5-8.5,7.1-16.1,10.9-24.1c0-2.8,1.9-6.2,1.9-9c-0.9-1.9-0.5-5.2-2.8-6.2
		c-2.8,1.4-2.4,4.7-4.7,6.6c-4.7,10.4-10.9,20.4-16.1,30.3c-2.4,7.1-6.2,14.2-6.6,21.8c0.9,3.8,3.8,7.6,8,8.5c2.8,0.9,6.6,0,9-2.4
		c7.1-14.2,20.4-24.6,32.2-36c6.2-1.4,9.5-6.2,14.7-9.5c2.4-1.4,5.2-5.2,7.6-5.2v-0.9c2.8-0.9,5.2-3.3,8-3.8
		c1.9-0.5,3.3-2.8,4.7-1.9c2.8,3.8-1.4,8.5-1.4,12.3c-1.9,7.1-4.3,12.8-8,18.9c-2.4,1.4-4.7-1.4-6.6-2.4c-0.9,0.9,0.9,0.9,0.9,2.4
		c-0.9,2.8,1.4,5.7,2.8,7.1c0.5,7.6-7.1,11.4-7.6,18.5c-1.4,1.9-2.8,2.8-3.8,5.7c-3.3,5.7-5.7,11.8-9,17.5
		c-3.8,5.7-7.6,12.3-11.8,18.5c-5.7,5.7-14.2,3.3-20.4,8c-2.4,0-5.2,0.9-7.1,0.9c-2.8,0.9-5.7,2.4-7.1,4.7l-0.9-0.9l-14.2,4.7
		c-6.2,0-11.8,5.2-17.5,4.7c-5.2,1.9-10.9,1.9-17,0.9c-1.9,0.9-2.4,3.8-3.8,5.7c1.9,6.6,7.6,5.2,12.3,7.6l9.9-0.9
		c4.7-2.8,9.9-3.3,14.7-6.6c2.4-1.4,4.3-3.3,7.1-3.8c8-7.1,19.4-8.5,28.4-14.2c0.9-3.8,4.7-0.5,6.2-2.8c2.4,0.9,2.8,4.3,3.8,6.6
		c2.4,2.8,5.7,5.2,9.5,5.2c1.9-0.9,4.3,0.9,5.7-0.9c4.3,1.9,8-2.8,11.8-0.9c2.8-0.9,7.6,0,8.5,3.8c-0.9,1.4-3.3,2.4-4.7,4.3
		c-3.8,1.9-8,4.7-13.3,6.2c-5.7,3.8-12.8,5.7-19.4,6.6c-4.3,0-7.6,1.4-12.3,0.9c-1.4,0.9-4.7-0.9-5.7,0.9c1.4,2.8,4.3,3.3,6.2,5.2
		c1.9,1.4,4.3,0,5.7,1.4c7.1-0.5,12.3-0.5,18.5-2.4c4.7,0,8-4.3,12.3-5.7v-0.9l0.9,0.5c4.3-0.5,6.2-4.3,10.4-5.2
		c6.2-3.3,10.9-10.4,18.5-11.8c7.6,1.4,14.2,6.2,20.4,9.9c5.7,4.3,11.8,4.7,16.6,10.4c2.8,0,3.3,3.8,5.7,4.7
		c1.9,1.4,4.3,2.8,6.2,4.7l7.6,1.9c2.8-0.9,4.7-3.8,5.2-6.6l-1.4-6.6c0.5-1.9,3.8-1.9,2.8-3.3c-2.4,0.5-1.9-2.8-4.3-2.4
		c0.5-0.5,0.9-0.9,1.4-0.9c-0.5-0.9-2.8,0.9-3.8-0.9c0.5-3.3-4.3-4.3-4.3-8c-1.9-1.4-2.8,3.8-4.7,0.9c-2.4,0.5-5.2-0.9-8,0
		c-1.4,0-1.9-2.4-3.3-0.9c-5.7-3.3-10.9-6.2-17-8c-3.3-1.9-8-2.4-10.4-5.2c6.6-8.5,9.5-17,15.6-25.6c6.2,0,14.2-1.4,20.8-2.4
		c4.3,0.5,9.9-0.9,12.8,3.8c-0.5,5.2-7.1,4.7-10.9,7.1c1.9,0,3.8,2.8,5.2,1.4c0.5,1.4,2.4,0.5,3.3,0.5c4.3,3.3,10.9,0.9,15.1,2.4
		c2.4,0.9,5.7,0.9,6.6-1.4C648.3,135.6,646.4,133.3,644.5,131.4L644.5,131.4z M568.3,150.3c-4.3,0-9,0.9-13.3-0.5
		c-7.6-0.5-15.6-1.9-22.7-0.5c-0.9-3.3,2.8-5.2,4.3-8c2.8-0.5,5.2-2.8,8.5-1.9c2.8-1.9,6.6-3.3,9.9-3.3c4.3-3.3,10.4-1.9,15.1-4.7
		c1.9,1.9,4.3-0.9,6.2-1.4c0.9,1.4,3.8-1.4,4.7,1.4C579.1,138.5,573,144.6,568.3,150.3L568.3,150.3z"/>
</g>
</svg>
